<svg xmlns="http://www.w3.org/2000/svg" viewBox="0 0 260 80" fill="none">
  <!-- Orange Arc -->
  <path d="M28 8C28 8 32 2 40 2C48 2 52 8 52 8" stroke="#F5A623" stroke-width="8" stroke-linecap="round" fill="none"/>
  <!-- G -->
  <path d="M10 28C10 28 10 70 38 70C58 70 62 52 62 52L62 44H38V52H52C52 52 50 62 38 62C22 62 20 42 20 42C20 42 20 28 38 28C48 28 54 34 54 34L60 26C60 26 52 18 38 18C16 18 10 28 10 28Z" fill="#1B4F8F"/>
  <!-- R -->
  <path d="M72 20H96C110 20 114 30 114 36C114 44 108 48 108 48L118 70H106L98 50H82V70H72V20ZM82 28V42H96C102 42 104 38 104 36C104 32 100 28 96 28H82Z" fill="#1B4F8F"/>
  <!-- I -->
  <path d="M124 20H134V70H124V20Z" fill="#1B4F8F"/>
  <!-- 경기연구원 text -->
  <text x="148" y="48" font-family="'Pretendard', sans-serif" font-size="28" font-weight="700" fill="#1A1A2E">경기연구원</text>
  <!-- Gyeonggi Research Institute subtitle -->
  <text x="148" y="68" font-family="'Pretendard', sans-serif" font-size="11" font-weight="400" fill="#6B7280" letter-spacing="0.5">Gyeonggi Research Institute</text>
</svg>
